<svg xmlns="http://www.w3.org/2000/svg" xmlns:xlink="http://www.w3.org/1999/xlink" width="500" zoomAndPan="magnify" viewBox="0 0 375 374.999991" height="500" preserveAspectRatio="xMidYMid meet" version="1.0"><defs><g/><clipPath id="819b065c9c"><path d="M 141 164 L 337.488281 164 L 337.488281 283 L 141 283 Z M 141 164 " clip-rule="nonzero"/></clipPath><clipPath id="b6d284dfc6"><path d="M 59.238281 6.480469 L 316 6.480469 L 316 295.976562 L 59.238281 295.976562 Z M 59.238281 6.480469 " clip-rule="nonzero"/></clipPath></defs><g clip-path="url(#819b065c9c)"><path fill="#00c2cb" d="M 284.507812 234.09375 C 293.210938 218.882812 298.183594 201.261719 298.183594 182.480469 C 298.183594 176.273438 297.640625 170.195312 296.597656 164.289062 C 292.382812 187.714844 279.929688 208.285156 262.332031 222.875 C 252.152344 231.316406 237 229.601562 229.035156 219.046875 L 214.164062 199.347656 C 211.691406 196.070312 207.824219 194.144531 203.71875 194.144531 L 147.066406 194.144531 C 147.054688 194.144531 147.042969 194.144531 147.03125 194.144531 C 143.164062 194.171875 140.660156 198.25 142.398438 201.710938 L 144.652344 206.203125 C 148.84375 214.550781 157.097656 220.101562 166.410156 220.835938 L 169.765625 221.097656 L 184.457031 222.257812 C 188.617188 222.585938 192.367188 224.886719 194.542969 228.445312 L 201.203125 239.339844 L 204.933594 245.445312 L 225.832031 279.625 C 226.207031 280.238281 226.671875 280.769531 227.203125 281.214844 C 228.734375 282.496094 230.808594 283.027344 232.824219 282.53125 C 232.839844 282.527344 232.851562 282.523438 232.867188 282.523438 C 287.074219 269.140625 328.835938 224.175781 337.507812 168.265625 C 329.894531 196.949219 310.351562 220.773438 284.507812 234.09375 " fill-opacity="1" fill-rule="nonzero"/></g><g clip-path="url(#b6d284dfc6)"><path fill="#003479" d="M 190.542969 230.890625 C 189.15625 228.617188 186.742188 227.136719 184.089844 226.929688 L 166.042969 225.507812 C 155.160156 224.648438 145.359375 218.058594 140.464844 208.304688 L 138.328125 204.054688 C 136.808594 201.027344 136.773438 197.410156 138.449219 194.472656 C 140.179688 191.4375 143.296875 189.570312 146.757812 189.464844 L 147.066406 189.457031 L 165.207031 189.457031 C 159.292969 180.125 148.636719 174.871094 137.605469 175.902344 L 118.757812 177.664062 C 110.683594 178.417969 103.429688 172.851562 101.945312 164.882812 C 100.84375 158.976562 100.265625 152.882812 100.265625 146.652344 C 100.265625 115.078125 115.054688 86.957031 138.082031 68.835938 C 115.269531 83.859375 97.515625 105.9375 87.933594 131.96875 C 96.566406 69.257812 150.359375 20.953125 215.445312 20.953125 C 255.730469 20.953125 291.691406 39.464844 315.296875 68.441406 C 290.210938 31.292969 247.765625 6.832031 199.597656 6.707031 C 122.492188 6.503906 59.390625 69.332031 59.277344 146.441406 C 59.234375 173.585938 66.933594 198.925781 80.269531 220.394531 C 80.550781 220.847656 80.828125 221.300781 81.117188 221.753906 L 99.796875 218.585938 C 108.140625 217.175781 115.011719 225.242188 112.171875 233.214844 C 112.09375 233.433594 112.042969 233.554688 112.042969 233.554688 C 124.070312 237.929688 122.039062 249.644531 122.039062 249.644531 C 132.660156 254.488281 128.289062 264.484375 128.289062 264.484375 C 132.042969 266.035156 133.359375 269.070312 133.699219 270.0625 C 133.875 270.570312 134.066406 271.070312 134.261719 271.574219 L 141.523438 290.210938 C 142.773438 293.414062 146.609375 296.039062 150.046875 296.039062 C 154.390625 296.039062 157.394531 291.699219 155.867188 287.636719 L 152.46875 278.585938 L 147.933594 266.519531 C 147.617188 265.675781 148.191406 264.75 149.109375 264.683594 C 149.707031 264.640625 150.257812 265.03125 150.488281 265.589844 L 156.445312 279.933594 L 160.855469 290.554688 C 162.375 294.207031 166.386719 296.304688 170.1875 295.195312 C 174.738281 293.867188 177.007812 288.769531 174.949219 284.496094 C 174.945312 284.496094 174.945312 284.488281 174.945312 284.484375 L 164.03125 261.945312 C 163.566406 260.980469 164.203125 259.84375 165.273438 259.738281 C 165.890625 259.679688 166.488281 259.996094 166.78125 260.542969 L 180.058594 285.289062 L 181.703125 288.355469 C 183.328125 291.382812 186.882812 292.957031 190.140625 291.878906 C 192.675781 291.042969 194.363281 288.921875 194.8125 286.523438 C 195.085938 285.0625 194.898438 283.5 194.15625 282.058594 L 183.765625 261.921875 C 183.308594 261.035156 183.644531 259.898438 184.566406 259.519531 C 185.378906 259.179688 186.292969 259.527344 186.695312 260.28125 L 198.4375 282.464844 C 199.386719 284.257812 200.800781 285.644531 202.453125 286.5625 C 205.207031 288.089844 208.621094 288.304688 211.664062 286.867188 C 212.253906 286.59375 212.789062 286.257812 213.292969 285.894531 C 217.457031 282.871094 218.765625 277.050781 215.972656 272.480469 L 190.542969 230.890625 " fill-opacity="1" fill-rule="nonzero"/></g><path fill="#00c2cb" d="M 89.023438 239.300781 L 103.71875 236.863281 C 108.125 236.128906 111.109375 231.964844 110.378906 227.554688 C 109.644531 223.144531 105.476562 220.164062 101.066406 220.894531 L 86.375 223.332031 C 81.964844 224.0625 78.984375 228.230469 79.714844 232.640625 C 80.445312 237.050781 84.613281 240.03125 89.023438 239.300781 " fill-opacity="1" fill-rule="nonzero"/><path fill="#00c2cb" d="M 117.875 243.484375 C 117.144531 239.074219 112.972656 236.09375 108.566406 236.828125 L 88.507812 240.660156 C 84.097656 241.390625 81.117188 245.558594 81.847656 249.96875 C 82.582031 254.375 86.746094 257.359375 91.15625 256.628906 L 111.214844 252.792969 C 115.625 252.0625 118.605469 247.894531 117.875 243.484375 " fill-opacity="1" fill-rule="nonzero"/><path fill="#00c2cb" d="M 124.640625 260.148438 C 123.910156 255.734375 119.742188 252.753906 115.335938 253.488281 L 100.640625 255.921875 C 96.230469 256.65625 93.25 260.824219 93.980469 265.234375 C 94.710938 269.640625 98.878906 272.625 103.289062 271.890625 L 117.980469 269.453125 C 122.390625 268.722656 125.375 264.558594 124.640625 260.148438 " fill-opacity="1" fill-rule="nonzero"/><path fill="#00c2cb" d="M 125.539062 269.105469 L 113.472656 271.027344 C 109.0625 271.757812 106.082031 275.925781 106.8125 280.335938 C 107.542969 284.746094 111.710938 287.726562 116.121094 286.996094 L 128.1875 285.074219 C 132.597656 284.34375 135.578125 280.175781 134.847656 275.765625 C 134.117188 271.355469 129.949219 268.375 125.539062 269.105469 " fill-opacity="1" fill-rule="nonzero"/><g fill="#003479" fill-opacity="1"><g transform="translate(149.155788, 321.467059)"><g><path d="M 25.6875 -0.640625 L 23.59375 -21.375 C 23.5625 -21.703125 23.390625 -21.890625 23.046875 -21.890625 L 22.984375 -21.890625 C 22.625 -21.890625 22.5625 -21.6875 22.375 -21.390625 L 13.515625 -6.359375 L 4.65625 -21.390625 C 4.46875 -21.6875 4.40625 -21.890625 4.046875 -21.890625 L 3.96875 -21.890625 C 3.65625 -21.890625 3.46875 -21.703125 3.4375 -21.375 L 1.34375 -0.640625 C 1.296875 -0.1875 1.5625 0.015625 1.96875 0.015625 L 4.734375 0.015625 C 5.125 0.015625 5.328125 -0.15625 5.375 -0.59375 L 6.421875 -11.125 L 12.8125 -0.25 C 13.0625 0.140625 13.15625 0.3125 13.515625 0.3125 L 13.53125 0.3125 C 13.875 0.3125 13.96875 0.140625 14.234375 -0.25 L 20.625 -11.125 L 21.65625 -0.59375 C 21.6875 -0.15625 21.90625 0.015625 22.3125 0.015625 L 25.0625 0.015625 C 25.46875 0.015625 25.734375 -0.1875 25.6875 -0.640625 Z M 25.6875 -0.640625 "/></g></g></g><g fill="#003479" fill-opacity="1"><g transform="translate(179.079681, 321.467059)"><g><path d="M 18.1875 -3.8125 L 6.59375 -3.8125 L 6.59375 -8.140625 L 15.609375 -8.140625 C 16.078125 -8.140625 16.359375 -8.390625 16.359375 -8.78125 L 16.359375 -11.140625 C 16.359375 -11.578125 16.078125 -11.8125 15.609375 -11.8125 L 6.59375 -11.8125 L 6.59375 -17.765625 L 18.109375 -17.765625 C 18.515625 -17.765625 18.75 -18 18.75 -18.421875 L 18.75 -20.9375 C 18.75 -21.328125 18.515625 -21.5625 18.109375 -21.5625 L 3.203125 -21.5625 C 2.796875 -21.5625 2.5625 -21.359375 2.5625 -20.921875 L 2.5625 -0.625 C 2.5625 -0.234375 2.796875 0 3.203125 0 L 18.40625 0 C 18.796875 0 19.046875 -0.234375 19.046875 -0.625 L 19.046875 -3.015625 C 19.046875 -3.5 18.71875 -3.8125 18.1875 -3.8125 Z M 18.1875 -3.8125 "/></g></g></g><g fill="#003479" fill-opacity="1"><g transform="translate(202.487353, 321.467059)"><g><path d="M 2.5625 -0.625 C 2.5625 -0.265625 2.84375 0 3.21875 0 L 11.09375 0 C 17.5 0 22.078125 -4.5625 22.078125 -10.78125 C 22.078125 -17.03125 17.5 -21.5625 11.140625 -21.5625 L 3.203125 -21.5625 C 2.84375 -21.5625 2.5625 -21.3125 2.5625 -20.9375 Z M 6.59375 -3.8125 L 6.59375 -17.796875 L 11.125 -17.8125 C 15.140625 -17.828125 18.0625 -14.734375 18.0625 -10.78125 C 18.0625 -6.921875 15.140625 -3.8125 11.078125 -3.8125 Z M 6.59375 -3.8125 "/></g></g></g><g fill="#545454" fill-opacity="1"><g transform="translate(37.153637, 356.384535)"><g><path d="M 2.03125 -0.5 C 2.03125 -0.21875 2.25 0 2.546875 0 L 8.78125 0 C 13.875 0 17.5 -3.609375 17.5 -8.546875 C 17.5 -13.5 13.875 -17.09375 8.828125 -17.09375 L 2.546875 -17.09375 C 2.25 -17.09375 2.03125 -16.890625 2.03125 -16.59375 Z M 5.21875 -3.015625 L 5.21875 -14.109375 L 8.828125 -14.125 C 12 -14.140625 14.3125 -11.6875 14.3125 -8.546875 C 14.3125 -5.484375 12 -3.015625 8.78125 -3.015625 Z M 5.21875 -3.015625 "/></g></g></g><g fill="#545454" fill-opacity="1"><g transform="translate(74.094405, 356.384535)"><g><path d="M 5.203125 -16.734375 C 5.203125 -16.984375 5.078125 -17.109375 4.828125 -17.109375 L 2.40625 -17.109375 C 2.171875 -17.109375 2.03125 -16.984375 2.03125 -16.734375 L 2.03125 -0.359375 C 2.03125 -0.125 2.171875 0.015625 2.40625 0.015625 L 4.828125 0.015625 C 5.078125 0.015625 5.203125 -0.125 5.203125 -0.359375 Z M 5.203125 -16.734375 "/></g></g></g><g fill="#545454" fill-opacity="1"><g transform="translate(99.77681, 356.384535)"><g><path d="M 16.546875 -0.546875 L 9.25 -16.875 C 9.125 -17.140625 8.90625 -17.3125 8.625 -17.3125 L 8.484375 -17.3125 C 8.234375 -17.3125 7.984375 -17.15625 7.859375 -16.875 L 0.578125 -0.5625 C 0.421875 -0.21875 0.59375 0.015625 0.96875 0.015625 L 3.375 0.015625 C 3.65625 0.015625 3.859375 -0.1875 3.96875 -0.421875 L 4.640625 -2.078125 L 12.5 -2.078125 L 13.1875 -0.421875 C 13.296875 -0.171875 13.5 0.015625 13.765625 0.015625 L 16.1875 0.015625 C 16.546875 0.015625 16.703125 -0.21875 16.546875 -0.546875 Z M 5.765625 -4.8125 L 8.578125 -11.609375 L 11.375 -4.8125 Z M 5.765625 -4.8125 "/></g></g></g><g fill="#545454" fill-opacity="1"><g transform="translate(135.345431, 356.384535)"><g><path d="M 15.46875 -8.703125 L 9.890625 -8.703125 C 9.671875 -8.703125 9.53125 -8.546875 9.53125 -8.3125 L 9.53125 -6.421875 C 9.53125 -6.171875 9.671875 -6.046875 9.890625 -6.046875 L 12.8125 -6.046875 L 12.8125 -3.609375 C 12.125 -3.125 10.84375 -2.75 9.96875 -2.75 C 6.609375 -2.75 4.203125 -5.328125 4.203125 -8.546875 C 4.203125 -11.71875 6.734375 -14.203125 9.96875 -14.203125 C 11.03125 -14.203125 12.390625 -13.859375 13.40625 -12.96875 C 13.625 -12.78125 13.921875 -12.8125 14.09375 -13.046875 L 15.328125 -14.921875 C 15.46875 -15.140625 15.421875 -15.421875 15.21875 -15.609375 C 13.8125 -16.78125 11.6875 -17.359375 9.953125 -17.359375 C 4.953125 -17.359375 1.015625 -13.5 1.015625 -8.546875 C 1.015625 -3.5625 4.96875 0.265625 9.96875 0.265625 C 11.890625 0.265625 14.25 -0.4375 15.5625 -1.34375 C 15.71875 -1.453125 15.828125 -1.703125 15.828125 -1.890625 L 15.828125 -8.3125 C 15.828125 -8.546875 15.6875 -8.703125 15.46875 -8.703125 Z M 15.46875 -8.703125 "/></g></g></g><g fill="#545454" fill-opacity="1"><g transform="translate(171.094006, 356.384535)"><g><path d="M 16.875 -17.109375 L 14.453125 -17.109375 C 14.21875 -17.109375 14.09375 -16.984375 14.09375 -16.75 L 14.09375 -6.53125 L 3.125 -16.90625 C 2.890625 -17.125 2.734375 -17.3125 2.5 -17.3125 L 2.453125 -17.3125 C 2.21875 -17.3125 2.03125 -17.109375 2.03125 -16.828125 L 2.03125 -0.359375 C 2.03125 -0.125 2.1875 0.015625 2.421875 0.015625 L 4.84375 0.015625 C 5.078125 0.015625 5.21875 -0.125 5.21875 -0.359375 L 5.21875 -10.515625 L 16.109375 -0.1875 C 16.34375 0.03125 16.515625 0.21875 16.796875 0.21875 L 16.828125 0.21875 C 17.0625 0.21875 17.265625 0.03125 17.265625 -0.296875 L 17.265625 -16.75 C 17.265625 -16.96875 17.125 -17.109375 16.875 -17.109375 Z M 16.875 -17.109375 "/></g></g></g><g fill="#545454" fill-opacity="1"><g transform="translate(208.822072, 356.384535)"><g><path d="M 1.015625 -8.515625 C 1.015625 -3.5625 4.921875 0.265625 9.875 0.265625 C 14.84375 0.265625 18.75 -3.5625 18.75 -8.515625 C 18.75 -13.484375 14.84375 -17.359375 9.875 -17.359375 C 4.921875 -17.359375 1.015625 -13.484375 1.015625 -8.515625 Z M 4.1875 -8.515625 C 4.1875 -11.71875 6.703125 -14.1875 9.875 -14.1875 C 13.0625 -14.1875 15.578125 -11.71875 15.578125 -8.515625 C 15.578125 -5.34375 13.078125 -2.90625 9.875 -2.90625 C 6.6875 -2.90625 4.1875 -5.34375 4.1875 -8.515625 Z M 4.1875 -8.515625 "/></g></g></g><g fill="#545454" fill-opacity="1"><g transform="translate(247.011261, 356.384535)"><g><path d="M 7.71875 0.265625 C 11.328125 0.265625 13.859375 -1.75 13.859375 -4.921875 C 13.859375 -7.953125 11.328125 -9 8.578125 -9.890625 C 6.578125 -10.5625 4.96875 -11.21875 4.96875 -12.5 C 4.96875 -13.578125 5.90625 -14.328125 7.546875 -14.328125 C 8.53125 -14.328125 9.65625 -13.90625 10.421875 -13.1875 C 10.78125 -12.953125 11.078125 -12.859375 11.40625 -13.234375 L 12.578125 -14.578125 C 12.796875 -14.84375 12.78125 -15.15625 12.546875 -15.421875 C 11.5625 -16.578125 9.625 -17.359375 7.6875 -17.359375 C 4.109375 -17.359375 1.84375 -15.421875 1.84375 -12.53125 C 1.84375 -9.765625 3.734375 -8.53125 6.96875 -7.46875 C 9.265625 -6.6875 10.5625 -6.09375 10.5625 -4.890625 C 10.5625 -3.5625 9.515625 -2.765625 7.59375 -2.765625 C 6.171875 -2.765625 4.5625 -3.59375 3.5625 -4.6875 C 3.296875 -4.921875 3.015625 -4.96875 2.8125 -4.78125 L 1.34375 -3.3125 C 1.109375 -3.078125 1.078125 -2.796875 1.25 -2.59375 C 2.484375 -0.90625 5.125 0.265625 7.71875 0.265625 Z M 7.71875 0.265625 "/></g></g></g><g fill="#545454" fill-opacity="1"><g transform="translate(280.375449, 356.384535)"><g><path d="M 0.65625 -14.828125 C 0.65625 -14.5 0.859375 -14.3125 1.15625 -14.3125 L 5.40625 -14.3125 L 5.40625 -0.484375 C 5.40625 -0.171875 5.59375 0.015625 5.90625 0.015625 L 8.078125 0.015625 C 8.40625 0.015625 8.59375 -0.171875 8.59375 -0.484375 L 8.59375 -14.3125 L 12.875 -14.3125 C 13.171875 -14.3125 13.359375 -14.5 13.359375 -14.828125 L 13.359375 -16.59375 C 13.359375 -16.90625 13.171875 -17.09375 12.875 -17.09375 L 1.15625 -17.09375 C 0.84375 -17.09375 0.65625 -16.90625 0.65625 -16.59375 Z M 0.65625 -14.828125 "/></g></g></g><g fill="#545454" fill-opacity="1"><g transform="translate(312.828613, 356.384535)"><g><path d="M 5.203125 -16.734375 C 5.203125 -16.984375 5.078125 -17.109375 4.828125 -17.109375 L 2.40625 -17.109375 C 2.171875 -17.109375 2.03125 -16.984375 2.03125 -16.734375 L 2.03125 -0.359375 C 2.03125 -0.125 2.171875 0.015625 2.40625 0.015625 L 4.828125 0.015625 C 5.078125 0.015625 5.203125 -0.125 5.203125 -0.359375 Z M 5.203125 -16.734375 "/></g></g></g><g fill="#545454" fill-opacity="1"><g transform="translate(338.511033, 356.384535)"><g><path d="M 13.328125 -4.109375 C 12.390625 -3.34375 11.078125 -2.90625 9.96875 -2.90625 C 6.765625 -2.90625 4.1875 -5.375 4.1875 -8.53125 C 4.1875 -11.6875 6.75 -14.1875 9.96875 -14.1875 C 11.125 -14.1875 12.421875 -13.765625 13.375 -12.953125 C 13.65625 -12.71875 13.984375 -12.78125 14.09375 -12.96875 L 15.390625 -14.90625 C 15.5 -15.09375 15.5 -15.34375 15.21875 -15.5625 C 13.8125 -16.6875 11.6875 -17.359375 9.96875 -17.359375 C 4.96875 -17.359375 1.015625 -13.484375 1.015625 -8.53125 C 1.015625 -3.578125 4.96875 0.265625 9.96875 0.265625 C 11.71875 0.265625 13.796875 -0.421875 15.140625 -1.484375 C 15.390625 -1.671875 15.5 -1.953125 15.390625 -2.125 L 14.09375 -4.078125 C 13.953125 -4.296875 13.609375 -4.3125 13.328125 -4.109375 Z M 13.328125 -4.109375 "/></g></g></g></svg>